<svg xmlns="http://www.w3.org/2000/svg" width="34.97" height="29.024" viewBox="0 0 34.97 29.024">
  <g id="envelope" transform="translate(0 -54.82)">
    <g id="Group_101" data-name="Group 101" transform="translate(0 54.82)">
      <g id="Group_100" data-name="Group 100" transform="translate(0 0)">
        <path id="Path_65" data-name="Path 65" d="M3.356,63.766q.664.495,4,2.938t5.113,3.762q.2.145.829.629t1.054.784q.42.3,1.015.67a5.748,5.748,0,0,0,1.122.556,2.944,2.944,0,0,0,.976.185H17.5a2.947,2.947,0,0,0,.976-.185,5.754,5.754,0,0,0,1.122-.556q.6-.371,1.015-.67t1.054-.784q.634-.485.829-.629,1.8-1.319,9.133-6.7a9.556,9.556,0,0,0,2.38-2.535,5.655,5.655,0,0,0,.956-3.112,3.249,3.249,0,0,0-.927-2.33,2.938,2.938,0,0,0-2.2-.969H3.122A2.725,2.725,0,0,0,.81,55.892,4.319,4.319,0,0,0,0,58.572a4.972,4.972,0,0,0,1.073,2.814A9.962,9.962,0,0,0,3.356,63.766Z" transform="translate(0 -54.82)" fill="#33393d"/>
        <path id="Path_66" data-name="Path 66" d="M33.018,186.23q-6.4,4.576-9.718,7.112-1.112.865-1.805,1.35a10.929,10.929,0,0,1-1.844.989,5.363,5.363,0,0,1-2.146.505h-.04a5.365,5.365,0,0,1-2.147-.505,10.934,10.934,0,0,1-1.844-.989q-.693-.484-1.8-1.35-2.635-2.041-9.7-7.112A10.519,10.519,0,0,1,0,184.437V200.8a3.267,3.267,0,0,0,.917,2.33,2.928,2.928,0,0,0,2.205.969H31.848a2.928,2.928,0,0,0,2.205-.969,3.267,3.267,0,0,0,.917-2.33V184.437A10.96,10.96,0,0,1,33.018,186.23Z" transform="translate(0 -175.078)" fill="#33393d"/>
      </g>
    </g>
  </g>
</svg>
