<svg xmlns="http://www.w3.org/2000/svg" width="493" height="461.141" viewBox="0 0 493 461.141">
  <path id="living-room" d="M468.36,269.005H443.709V192.152c-.026-21.214-18.4-38.4-41.085-38.428H271.159c-22.681.025-41.058,17.214-41.085,38.428v76.853H205.423c-13.6.014-24.633,10.329-24.648,23.058v76.853c.064,20.226,16.9,36.93,38.482,38.182l-11.814,38.671h-76.8c-3.931-17.876-20.74-30.717-40.253-30.741H73.959V61.19C73.97,37.151,93.837,17.207,119.474,15.5S167.8,30.917,171.44,54.714l.143.932c-10.6,4.085-16.76,14.5-14.819,25.067l2.242,12.408-21.97,35.29a14.53,14.53,0,0,0-.064,15.371,16.671,16.671,0,0,0,14.2,7.743,17.814,17.814,0,0,0,2.806-.222l78.829-12.461A16.1,16.1,0,0,0,245.9,127.8a14.766,14.766,0,0,0-5.138-15.775L207.616,85.441l-2.242-12.408c-1.591-8.651-8.309-15.7-17.313-18.175l-.354-2.318c-4.856-31.79-35.157-54.661-69.4-52.385S57.525,29.081,57.525,61.19V415.028H41.092v-7.684a7.965,7.965,0,0,0-8.218-7.687,7.964,7.964,0,0,0-8.215,7.687v10.941C9.708,424.4.038,438.195.008,453.456a7.964,7.964,0,0,0,8.218,7.684H484.793a7.7,7.7,0,1,0,0-15.371H466.34L454.526,407.1c21.582-1.252,38.418-17.956,38.482-38.182V292.063C492.993,279.334,481.965,269.019,468.36,269.005ZM230.067,123.686l-78.829,12.465,21.53-34.583,24.821-3.923,32.539,26.027ZM190.544,83.168l-16.2,2.561-1.373-7.578a7.767,7.767,0,0,1,6.733-8.859,9,9,0,0,1,1.377-.106,8.1,8.1,0,0,1,8.1,6.4Zm80.616,85.926H402.624c13.608.014,24.636,10.329,24.651,23.058v78.271c-9.821,3.233-16.4,11.9-16.433,21.64v15.568a42.526,42.526,0,0,0-24.652-7.884H356.729l18.84-17.622a7.336,7.336,0,0,0-.1-10.772,8.624,8.624,0,0,0-11.517-.095l-18.84,17.622V253.635a8.237,8.237,0,0,0-16.437,0v35.244l-18.84-17.622a8.623,8.623,0,0,0-11.517.095,7.336,7.336,0,0,0-.1,10.772l18.84,17.622H287.592a42.526,42.526,0,0,0-24.651,7.884V292.063c-.03-9.742-6.612-18.407-16.433-21.64V192.152C246.523,179.424,257.551,169.108,271.159,169.094ZM386.191,315.117c13.608.014,24.636,10.329,24.652,23.058v7.684h-147.9v-7.684c.015-12.729,11.043-23.044,24.651-23.058Zm11.668,92.227,23.478,38.425H252.451l23.474-38.425Zm12.984-15.374h-147.9V361.229h147.9ZM197.209,368.916V292.063a7.976,7.976,0,0,1,8.215-7.687h32.87a7.976,7.976,0,0,1,8.215,7.687V391.97H221.86C208.252,391.956,197.224,381.645,197.209,368.916ZM17.851,445.769c3.49-9.2,12.8-15.36,23.241-15.371h49.3c10.441.011,19.751,6.167,23.241,15.371Zm206.683,0,11.739-38.425H257l-23.474,38.425Zm215.721,0-23.474-38.425H437.51l11.739,38.425Zm36.319-76.853c-.015,12.729-11.043,23.04-24.651,23.054H427.275V292.063a7.976,7.976,0,0,1,8.215-7.687h32.87a7.978,7.978,0,0,1,8.215,7.687Zm0,0" transform="translate(-0.008 0.001)" fill="#33393d"/>
</svg>
