<svg xmlns="http://www.w3.org/2000/svg" width="68.11" height="69.688" viewBox="0 0 68.11 69.688">
  <g id="right-arrow" transform="translate(-8 -8)">
    <path id="Path_75" data-name="Path 75" d="M19.352,77.688H64.758A11.5,11.5,0,0,0,76.11,66.073V19.615A11.5,11.5,0,0,0,64.758,8H19.352A11.5,11.5,0,0,0,8,19.615V31.229a2.839,2.839,0,1,0,5.676,0V19.615a5.748,5.748,0,0,1,5.676-5.807H64.758a5.748,5.748,0,0,1,5.676,5.807V66.073a5.748,5.748,0,0,1-5.676,5.807H19.352a5.748,5.748,0,0,1-5.676-5.807V54.458a2.839,2.839,0,1,0-5.676,0V66.073A11.5,11.5,0,0,0,19.352,77.688Z" transform="translate(0 0)" fill="#33393d"/>
    <path id="Path_76" data-name="Path 76" d="M16,36.518a2.872,2.872,0,0,0,2.838,2.9h32.88L45.211,46.08a2.951,2.951,0,0,0,0,4.106,2.791,2.791,0,0,0,4.013,0L60.575,38.571a2.951,2.951,0,0,0,0-4.106L49.223,22.851a2.792,2.792,0,0,0-4.013,0,2.951,2.951,0,0,0,0,4.106l6.507,6.658H18.838A2.872,2.872,0,0,0,16,36.518Z" transform="translate(3.352 6.326)" fill="#33393d"/>
  </g>
</svg>
