<svg xmlns="http://www.w3.org/2000/svg" width="48" height="48" viewBox="0 0 48 48">
  <g id="right-arrow_1_" data-name="right-arrow (1)" transform="translate(-8 -8)">
    <path id="Path_73" data-name="Path 73" d="M16,56H48a8.009,8.009,0,0,0,8-8V16a8.009,8.009,0,0,0-8-8H16a8.009,8.009,0,0,0-8,8v8a2,2,0,0,0,4,0V16a4,4,0,0,1,4-4H48a4,4,0,0,1,4,4V48a4,4,0,0,1-4,4H16a4,4,0,0,1-4-4V40a2,2,0,0,0-4,0v8A8.009,8.009,0,0,0,16,56Z" fill="#ffcd24"/>
    <path id="Path_74" data-name="Path 74" d="M16,32a2,2,0,0,0,2,2H41.172l-4.586,4.586a2,2,0,1,0,2.828,2.828l8-8a2,2,0,0,0,0-2.828l-8-8a2,2,0,1,0-2.828,2.828L41.172,30H18a2,2,0,0,0-2,2Z" fill="#ffcd24"/>
  </g>
</svg>
