<svg xmlns="http://www.w3.org/2000/svg" width="30.97" height="30" viewBox="0 0 30.97 30">
  <g id="telephone-handle-silhouette" transform="translate(-389.01 8)">
    <g id="Group_99" data-name="Group 99" transform="translate(389.01 -8)">
      <path id="Path_64" data-name="Path 64" d="M30.914,23.244q-.131-.384-1.672-1.129-.417-.235-1.187-.639t-1.4-.746q-.628-.341-1.177-.66-.088-.064-.55-.373a6.221,6.221,0,0,0-.781-.458,1.478,1.478,0,0,0-.627-.149,1.843,1.843,0,0,0-1.1.607,10.491,10.491,0,0,0-1.21,1.321,12.964,12.964,0,0,1-1.165,1.321,1.688,1.688,0,0,1-1.012.607,1.538,1.538,0,0,1-.5-.106c-.2-.071-.348-.132-.451-.181s-.278-.149-.527-.3-.389-.231-.418-.245a23.079,23.079,0,0,1-5.169-3.707A22.443,22.443,0,0,1,8.149,13.4q-.022-.043-.253-.4t-.308-.511a4.539,4.539,0,0,1-.187-.437,1.4,1.4,0,0,1-.11-.479q0-.383.627-.98A13.146,13.146,0,0,1,9.281,9.46a10.6,10.6,0,0,0,1.364-1.172,1.753,1.753,0,0,0,.627-1.065,1.356,1.356,0,0,0-.154-.607,5.891,5.891,0,0,0-.473-.757q-.319-.447-.385-.533-.33-.532-.682-1.14t-.77-1.353q-.418-.745-.66-1.15Q7.379.192,6.983.064A1.268,1.268,0,0,0,6.521,0,7.467,7.467,0,0,0,4.97.213,8.919,8.919,0,0,0,3.463.661a5.781,5.781,0,0,0-2.332,2.6A8.062,8.062,0,0,0,.01,7.222,7.974,7.974,0,0,0,.087,8.341,8.944,8.944,0,0,0,.362,9.566q.2.682.319,1.012t.451,1.182q.33.852.4,1.044a19.037,19.037,0,0,0,1.826,3.729,31.808,31.808,0,0,0,4.74,5.636,32.456,32.456,0,0,0,5.818,4.592,20.247,20.247,0,0,0,3.85,1.769q.2.064,1.078.384t1.221.437q.341.117,1.045.309a9.843,9.843,0,0,0,1.265.267A8.88,8.88,0,0,0,23.524,30a8.744,8.744,0,0,0,4.091-1.087A5.831,5.831,0,0,0,30.3,26.654,8.207,8.207,0,0,0,30.76,25.2a6.8,6.8,0,0,0,.22-1.5A1.154,1.154,0,0,0,30.914,23.244Z" transform="translate(-0.01)" fill="#33393d"/>
    </g>
  </g>
</svg>
