<svg xmlns="http://www.w3.org/2000/svg" width="23.828" height="22.665" viewBox="0 0 23.828 22.665"><g transform="translate(0 0)"><path d="M23.745,126.554l-3.1-6.677a.554.554,0,0,0-.526-.277h-2.66a.554.554,0,0,0,0,1.108h2.3l2.577,5.541H19.174a3.63,3.63,0,0,0-3.325,2.133,2.577,2.577,0,0,1-2.327,1.468H10.307a2.577,2.577,0,0,1-2.327-1.468,3.63,3.63,0,0,0-3.325-2.133h-3.1L4.6,120.708H6.373a.554.554,0,0,0,0-1.108H4.267a.526.526,0,0,0-.5.249L.111,126.554a.333.333,0,0,0-.111.222v6.9A2.909,2.909,0,0,0,2.854,136.5H20.974a2.909,2.909,0,0,0,2.854-2.826v-6.9A.526.526,0,0,0,23.745,126.554Z" transform="translate(0 -113.837)" fill="#ecc503"/><path d="M148.074,23.8a.526.526,0,0,0,.744.032l.032-.032,3.768-3.8a.554.554,0,0,0-.776-.776l-2.826,2.826V11.525a.554.554,0,1,0-1.108,0V22.054l-2.826-2.826a.554.554,0,0,0-.776.776Z" transform="translate(-136.547 -10.971)" fill="#ecc503"/></g></svg>